# xmcd
#
# Track frame offsets: 
#        150
#        5290
#        21909
#        35442
#        44902
#        63575
#        82207
#        99591
#        116222
#        133479
#        151002
#        173737
#        189847
#
# Disc length: 2767 seconds
#
# Revision: 1
# Processed by: cddbd v1.5.2PL0 Copyright (c) Steve Scherf et al.
# Submitted via: ExactAudioCopyFreeDBPlugin 1.0
#
DISCID=b10acd0d
DTITLE=Mac Bueno and DJ Tatc - Nälkämaan AG
DYEAR=2011
DGENRE=Hip-Hop
TTITLE0=Intro
TTITLE1=Nälkämaan AG
TTITLE2=Haziznippejä and Kromipiissejä
TTITLE3=Pummi (Skit)
TTITLE4=Hieno Mies
TTITLE5=Ganza Gangsta (feat. Velimatti)
TTITLE6=Juoppojuna R.I.P (feat. OG Ikonen)
TTITLE7=87250
TTITLE8=Urpo
TTITLE9=Katuhuikka
TTITLE10=Kova Laki (feat. Shaka, Petos and Hannibal)
TTITLE11=Morkkis
TTITLE12=Katuhuikka (Muff Diddy Remix)
EXTD=
EXTT0=
EXTT1=
EXTT2=
EXTT3=
EXTT4=
EXTT5=
EXTT6=
EXTT7=
EXTT8=
EXTT9=
EXTT10=
EXTT11=
EXTT12=
PLAYORDER=
